<?xml version="1.0" standalone="no"?>
<!DOCTYPE svg PUBLIC "-//W3C//DTD SVG 20010904//EN"
 "http://www.w3.org/TR/2001/REC-SVG-20010904/DTD/svg10.dtd">
<svg version="1.0" xmlns="http://www.w3.org/2000/svg"
 width="100.000000pt" height="100.000000pt" viewBox="0 0 100.000000 100.000000"
 preserveAspectRatio="xMidYMid meet">
<metadata>
Created by potrace 1.11, written by Peter Selinger 2001-2013
</metadata>
<g transform="translate(0.000000,100.000000) scale(0.100000,-0.100000)"
fill="#000000" stroke="none">
<path d="M210 817 c-30 -12 -73 -32 -95 -44 -42 -22 -105 -79 -105 -94 0 -18
22 -8 72 32 54 42 115 77 152 86 44 11 76 11 76 0 0 -13 -50 -67 -62 -67 -10
0 -157 -116 -181 -143 -30 -34 -4 -41 52 -13 28 15 51 22 51 16 0 -20 -34 -96
-58 -127 -15 -21 -31 -32 -45 -30 -14 1 -23 -5 -25 -16 -4 -17 -2 -17 27 -3
39 20 40 20 34 -5 -10 -37 30 -18 41 19 10 36 20 45 106 95 30 18 67 41 83 51
27 18 27 18 25 -5 -4 -32 30 -37 63 -10 28 22 21 38 -10 21 -36 -19 -25 12 34
95 58 80 64 95 41 95 -8 0 -32 -30 -55 -66 -35 -56 -44 -64 -56 -54 -10 9 -35
11 -75 7 -33 -3 -60 -3 -60 0 0 12 24 45 65 89 50 54 57 81 23 88 -41 7 -62 4
-118 -17z m-20 -171 c0 -2 -8 -10 -17 -17 -16 -13 -17 -12 -4 4 13 16 21 21
21 13z m150 -25 c0 -5 -15 -21 -32 -35 -18 -14 -40 -33 -50 -42 -14 -14 -32
-21 -61 -23 -5 -1 -5 -5 -2 -11 3 -5 1 -10 -4 -10 -16 0 -13 23 8 73 16 36 26
46 48 50 53 8 93 7 93 -2z"/>
<path d="M689 812 c-82 -57 -124 -139 -81 -158 22 -9 41 -6 67 13 20 14 20 14
0 13 -39 -4 -55 0 -55 15 0 19 68 95 85 95 7 0 18 6 24 14 18 22 -12 28 -40 8z"/>
<path d="M551 761 c-41 -41 -82 -112 -76 -131 4 -11 12 -20 19 -20 16 0 49 37
70 78 17 33 17 33 -3 22 -12 -6 -21 -16 -21 -23 0 -7 -10 -18 -22 -26 -20 -12
-19 -9 7 25 16 21 41 48 54 60 21 18 22 21 7 27 -10 4 -24 -1 -35 -12z"/>
<path d="M576 583 c-14 -21 -38 -50 -53 -65 -33 -31 -100 -164 -89 -175 4 -5
16 3 27 17 10 14 31 37 46 52 27 27 28 27 36 6 7 -20 8 -20 28 -2 l21 19 -7
-42 c-4 -29 -3 -43 4 -43 13 0 15 4 31 70 11 39 14 42 24 27 14 -19 34 -9 55
28 9 17 10 12 7 -27 -2 -30 1 -51 9 -58 16 -14 33 7 33 40 -1 14 3 51 7 83 7
53 6 57 -12 57 -12 0 -28 -12 -38 -26 -12 -19 -20 -23 -29 -14 -16 13 -43 4
-73 -23 -28 -25 -29 -12 -3 48 11 26 20 51 20 56 0 20 -21 7 -44 -28z"/>
<path d="M796 585 c-15 -14 -25 -29 -21 -34 3 -5 8 -34 11 -65 8 -69 -8 -97
-64 -114 -22 -7 -46 -20 -53 -29 -13 -15 -11 -16 25 -10 49 8 114 50 126 83 9
24 9 37 -6 120 -5 27 -2 32 20 38 30 7 35 36 7 36 -10 0 -30 -11 -45 -25z"/>
<path d="M410 488 c-25 -94 -52 -167 -68 -185 -26 -29 -94 -73 -114 -73 -10 0
-18 -5 -18 -11 0 -5 5 -7 11 -3 6 3 14 1 18 -5 18 -29 118 44 151 109 23 44
57 143 64 183 4 21 1 27 -14 27 -14 0 -22 -11 -30 -42z"/>
<path d="M907 395 c-26 -14 -109 -47 -185 -75 -75 -29 -140 -55 -144 -58 -4
-4 -1 -15 6 -24 11 -15 27 -12 185 42 199 67 240 94 198 128 -9 8 -26 4 -60
-13z"/>
<path d="M515 240 c-3 -5 -2 -10 4 -10 5 0 13 5 16 10 3 6 2 10 -4 10 -5 0
-13 -4 -16 -10z"/>
<path d="M456 213 c-6 -14 -5 -15 5 -6 7 7 10 15 7 18 -3 3 -9 -2 -12 -12z"/>
</g>
</svg>
